# Blender v2.92.0 OBJ File: ''
# www.blender.org
mtllib ground_riverBendOpen.mtl
o ground_riverSideOpen
v 0.500000 0.000000 -0.500000
v 0.379000 0.000000 -0.379000
v 0.500000 0.000000 -0.379000
v 0.379000 0.000000 -0.500000
v -0.500000 0.000000 -0.500000
v -0.379000 0.000000 -0.379000
v -0.379000 0.000000 -0.500000
v -0.500000 0.000000 -0.379000
v 0.500000 0.000000 -0.279000
v 0.375000 -0.050000 -0.217000
v 0.500000 -0.050000 -0.217000
v 0.375000 0.000000 -0.279000
v 0.217000 -0.050000 -0.500000
v 0.279000 0.000000 -0.375000
v 0.279000 0.000000 -0.500000
v 0.217000 -0.050000 -0.375000
v -0.500000 0.000000 -0.279000
v -0.375000 -0.050000 -0.217000
v -0.375000 0.000000 -0.279000
v -0.500000 -0.050000 -0.217000
v -0.279000 0.000000 -0.500000
v -0.217000 -0.050000 -0.375000
v -0.217000 -0.050000 -0.500000
v -0.279000 0.000000 -0.375000
v -0.240034 -0.050000 -0.282120
v -0.292995 0.000000 -0.318567
v 0.240034 -0.050000 -0.282120
v 0.292995 0.000000 -0.318567
v -0.500000 -0.050000 0.500000
v 0.500000 -0.050000 0.500000
v 0.500000 -0.050000 0.217000
v -0.500000 -0.050000 0.217000
v 0.499160 0.000000 0.498261
v 0.378160 0.000000 0.377261
v 0.378160 0.000000 0.498261
v 0.499160 0.000000 0.377261
v 0.278160 0.000000 0.498261
v 0.216160 -0.050000 0.373261
v 0.216160 -0.050000 0.498261
v 0.278160 0.000000 0.373261
v 0.499160 -0.050000 0.215261
v 0.374160 0.000000 0.277261
v 0.499160 0.000000 0.277261
v 0.374160 -0.050000 0.215261
v 0.281280 -0.050000 0.238296
v 0.317727 0.000000 0.291257
vt -19.685040 -19.685040
vt -14.921260 -14.921260
vt -19.685040 -14.921260
vt -14.921260 -19.685040
vt 19.685040 -19.685040
vt 14.921260 -14.921260
vt 14.921260 -19.685040
vt 19.685040 -14.921260
vt -19.685040 -19.685040
vt -14.921260 -14.921260
vt -19.685040 -14.921260
vt -14.921260 -19.685040
vt 19.685040 8.550285
vt 14.763780 5.414488
vt 19.685040 5.414488
vt 14.763780 8.550285
vt -19.685040 5.414488
vt -14.763780 8.550285
vt -19.685040 8.550285
vt -14.763780 5.414488
vt -19.685040 8.550285
vt -14.763780 5.414488
vt -14.763780 8.550285
vt -19.685040 5.414488
vt 19.685040 8.550285
vt 14.763780 5.414488
vt 19.685040 5.414488
vt 14.763780 8.550285
vt 11.685690 10.933480
vt 8.505797 7.853217
vt 12.273240 7.853217
vt 9.396606 10.933480
vt -11.685690 10.933480
vt -8.505797 7.853217
vt -9.396606 10.933480
vt -12.273240 7.853217
vt -4.938944 12.149750
vt -9.584359 9.198801
vt -3.684564 9.198801
vt -8.523629 12.149750
vt 8.523629 12.149750
vt 3.684564 9.198801
vt 9.584359 9.198801
vt 4.938944 12.149750
vt 19.685040 8.550285
vt 14.763780 5.414488
vt 19.685040 5.414488
vt 14.763780 8.550285
vt -19.685040 5.414488
vt -14.763780 8.550285
vt -19.685040 8.550285
vt -14.763780 5.414488
vt -11.685690 10.933480
vt -8.505797 7.853217
vt -9.396606 10.933480
vt -12.273240 7.853217
vt 8.523629 12.149750
vt 3.684564 9.198801
vt 9.584359 9.198801
vt 4.938944 12.149750
vt -10.984250 -19.685040
vt -14.763780 -10.984250
vt -11.535250 -12.542000
vt -10.984250 -14.763780
vt -19.685040 -10.984250
vt 10.984250 -14.763780
vt 10.984250 -19.685040
vt 11.535250 -12.542000
vt 14.763780 -10.984250
vt 19.685040 -10.984250
vt -10.984250 -19.685040
vt -14.763780 -10.984250
vt -11.535250 -12.542000
vt -10.984250 -14.763780
vt -19.685040 -10.984250
vt 8.543307 -19.685040
vt -8.543307 -14.763780
vt -8.543307 -19.685040
vt 8.543307 -14.763780
vt 9.450162 -11.107110
vt 19.685040 19.685040
vt -9.450162 -11.107110
vt -14.763780 -8.543307
vt -19.685040 -8.543307
vt -19.685040 19.685040
vt -19.685040 8.543307
vt 14.763780 -8.543307
vt 19.685040 8.543307
vt 19.685040 -8.543307
vn 0.0000 1.0000 0.0000
vn 0.0000 0.7784 0.6278
vn -0.6278 0.7784 0.0000
vn 0.6278 0.7784 0.0000
vn 0.6203 0.7691 0.1538
vn -0.6203 0.7691 0.1538
vn 0.2899 0.7450 0.6008
vn -0.2899 0.7450 0.6008
vn -0.0000 0.7784 -0.6278
vn -0.1538 0.7691 -0.6203
vn -0.6008 0.7450 -0.2899
vn 1.0000 0.0000 -0.0000
usemtl grass
s 1
f 1/1/1 2/2/1 3/3/1
f 2/2/1 1/1/1 4/4/1
f 5/5/1 6/6/1 7/7/1
f 6/6/1 5/5/1 8/8/1
f 33/9/1 34/10/1 35/11/1
f 34/10/1 33/9/1 36/12/1
usemtl dirtDark
f 9/13/2 10/14/2 11/15/2
f 10/14/2 9/13/2 12/16/2
f 13/17/3 14/18/3 15/19/3
f 14/18/3 13/17/3 16/20/3
f 17/21/2 18/22/2 19/23/2
f 18/22/2 17/21/2 20/24/2
f 21/25/4 22/26/4 23/27/4
f 22/26/4 21/25/4 24/28/4
f 24/29/5 25/30/5 22/31/5
f 25/30/5 24/29/5 26/32/5
f 14/33/6 27/34/6 28/35/6
f 27/34/6 14/33/6 16/36/6
f 26/37/7 18/38/7 25/39/7
f 18/38/7 26/37/7 19/40/7
f 12/41/8 27/42/8 10/43/8
f 27/42/8 12/41/8 28/44/8
f 37/45/3 38/46/3 39/47/3
f 38/46/3 37/45/3 40/48/3
f 41/49/9 42/50/9 43/51/9
f 42/50/9 41/49/9 44/52/9
f 42/53/10 45/54/10 46/55/10
f 45/54/10 42/53/10 44/56/10
f 40/57/11 45/58/11 38/59/11
f 45/58/11 40/57/11 46/60/11
usemtl dirt
f 15/61/1 2/2/1 4/4/1
f 2/2/1 15/61/1 12/62/1
f 12/62/1 15/61/1 28/63/1
f 28/63/1 15/61/1 14/64/1
f 12/62/1 3/3/1 2/2/1
f 3/3/1 12/62/1 9/65/1
f 7/7/1 24/66/1 21/67/1
f 24/66/1 7/7/1 26/68/1
f 26/68/1 7/7/1 19/69/1
f 19/69/1 7/7/1 6/6/1
f 19/69/1 6/6/1 17/70/1
f 17/70/1 6/6/1 8/8/1
f 43/71/1 34/10/1 36/12/1
f 34/10/1 43/71/1 40/72/1
f 40/72/1 43/71/1 46/73/1
f 46/73/1 43/71/1 42/74/1
f 40/72/1 35/11/1 34/10/1
f 35/11/1 40/72/1 37/75/1
usemtl water
f 23/76/1 16/77/1 13/78/1
f 22/79/1 16/77/1 23/76/1
f 25/80/1 16/77/1 22/79/1
f 29/81/1 16/77/1 25/80/1
f 29/81/1 27/82/1 16/77/1
f 29/81/1 10/83/1 27/82/1
f 29/81/1 11/84/1 10/83/1
f 30/85/1 11/84/1 29/81/1
f 11/84/12 30/85/12 31/86/12
f 29/81/1 25/80/1 18/87/1
f 29/81/1 18/87/1 32/88/1
f 20/89/1 32/88/1 18/87/1
