# Blender v2.92.0 OBJ File: ''
# www.blender.org
mtllib ground_riverSideLeft.mtl
o ground_pathSideOpen
v -0.500000 0.000000 -0.500000
v -0.379000 0.000000 -0.439500
v -0.379000 0.000000 -0.500000
v -0.439500 0.000000 -0.379000
v -0.500000 0.000000 -0.379000
v -0.500000 0.000000 -0.279000
v -0.375000 -0.050000 -0.217000
v -0.375000 0.000000 -0.279000
v -0.500000 -0.050000 -0.217000
v -0.279000 0.000000 -0.500000
v -0.217000 -0.050000 -0.375000
v -0.217000 -0.050000 -0.500000
v -0.279000 0.000000 -0.375000
vt 19.685040 -19.685040
vt 14.921260 -17.303150
vt 14.921260 -19.685040
vt 17.303150 -14.921260
vt 19.685040 -14.921260
vt -19.685040 8.550285
vt -14.763780 5.414488
vt -14.763780 8.550285
vt -19.685040 5.414488
vt 19.685040 8.550285
vt 14.763780 5.414488
vt 19.685040 5.414488
vt 14.763780 8.550285
vt 2.672529 12.003180
vt -4.398538 9.385145
vt 4.398538 9.385145
vt -2.672529 12.003180
vt 10.984250 -14.763780
vt 10.984250 -19.685040
vt 14.763780 -10.984250
vt 19.685040 -10.984250
vn 0.0000 1.0000 0.0000
vn 0.0000 0.7784 0.6278
vn 0.6278 0.7784 0.0000
vn 0.5317 0.6593 0.5317
usemtl grass.001
s 1
f 1/1/1 2/2/1 3/3/1
f 2/2/1 1/1/1 4/4/1
f 4/4/1 1/1/1 5/5/1
usemtl dirtDark.001
f 6/6/2 7/7/2 8/8/2
f 7/7/2 6/6/2 9/9/2
f 10/10/3 11/11/3 12/12/3
f 11/11/3 10/10/3 13/13/3
f 13/14/4 7/15/4 11/16/4
f 7/15/4 13/14/4 8/17/4
usemtl dirt.001
f 3/3/1 13/18/1 10/19/1
f 13/18/1 3/3/1 8/20/1
f 8/20/1 3/3/1 2/2/1
f 8/20/1 2/2/1 6/21/1
f 6/21/1 2/2/1 4/4/1
f 6/21/1 4/4/1 5/5/1
o ground_riverSide
v 0.500000 -0.000000 0.279000
v 0.375000 -0.000000 0.379000
v 0.500000 -0.000000 0.379000
v 0.375000 -0.000000 0.279000
v 0.125000 -0.000000 0.441000
v 0.125000 -0.000000 0.341000
v -0.125000 -0.000000 0.441000
v -0.125000 -0.000000 0.341000
v -0.375000 -0.000000 0.379000
v -0.375000 -0.000000 0.279000
v -0.500000 -0.000000 0.379000
v -0.500000 -0.000000 0.279000
v 0.125000 -0.050000 0.279000
v -0.125000 -0.050000 0.279000
v 0.375000 -0.050000 0.217000
v 0.500000 -0.050000 0.217000
v -0.375000 -0.050000 0.217000
v -0.500000 -0.050000 0.217000
v 0.500000 -0.000000 0.500000
v -0.500000 -0.000000 0.500000
v -0.500000 -0.050000 -0.500000
v 0.500000 -0.050000 -0.217000
v 0.500000 -0.050000 -0.500000
v -0.500000 -0.050000 -0.217000
vt -19.685040 10.984250
vt -14.763780 14.921260
vt -19.685040 14.921260
vt -14.763780 10.984250
vt -4.921260 17.362209
vt -4.921260 13.425200
vt 4.921260 17.362209
vt 4.921260 13.425200
vt 14.763780 14.921260
vt 14.763780 10.984250
vt 19.685040 14.921260
vt 19.685040 10.984250
vt -4.921260 7.314552
vt 4.921260 10.450350
vt -4.921260 10.450350
vt 4.921260 7.314552
vt -12.273240 7.853217
vt -1.545008 10.933480
vt -11.685690 10.933480
vt -2.132563 7.853217
vt -19.685040 5.414488
vt -14.763780 8.550285
vt -19.685040 8.550285
vt -14.763780 5.414488
vt 2.132563 7.853217
vt 11.685690 10.933480
vt 1.545008 10.933480
vt 12.273240 7.853217
vt 14.763780 5.414488
vt 19.685040 8.550285
vt 14.763780 8.550285
vt 19.685040 5.414488
vt -19.685040 19.685040
vt 19.685040 19.685040
vt 19.685040 -19.685040
vt -19.685040 -8.543307
vt -19.685040 -19.685040
vt -14.763780 8.543307
vt -4.921260 10.984250
vt 4.921260 10.984250
vt 14.763780 8.543307
vt 19.685040 8.543307
vt 19.685040 -8.543307
vt -19.685040 8.543307
vn 0.0000 1.0000 0.0000
vn 0.0000 0.7784 -0.6278
vn -0.1538 0.7691 -0.6203
vn 0.1538 0.7691 -0.6203
vn 0.0684 0.9977 0.0000
vn 0.0683 0.9977 -0.0000
usemtl dirt.002
s 1
f 14/22/5 15/23/5 16/24/5
f 15/23/5 14/22/5 17/25/5
f 15/23/5 17/25/5 18/26/5
f 18/26/5 17/25/5 19/27/5
f 18/26/5 19/27/5 20/28/5
f 20/28/5 19/27/5 21/29/5
f 20/28/5 21/29/5 22/30/5
f 22/30/5 21/29/5 23/31/5
f 22/30/5 23/31/5 24/32/5
f 24/32/5 23/31/5 25/33/5
usemtl dirtDark.002
f 26/34/6 21/35/6 19/36/6
f 21/35/6 26/34/6 27/37/6
f 28/38/7 19/39/7 17/40/7
f 19/39/7 28/38/7 26/41/7
f 29/42/6 17/43/6 14/44/6
f 17/43/6 29/42/6 28/45/6
f 27/46/8 23/47/8 21/48/8
f 23/47/8 27/46/8 30/49/8
f 30/50/6 25/51/6 23/52/6
f 25/51/6 30/50/6 31/53/6
usemtl grass.002
f 32/54/5 18/26/5 33/55/5
f 18/26/5 32/54/5 16/24/5
f 18/26/5 16/24/5 15/23/5
f 33/55/5 18/26/5 20/28/5
f 33/55/5 20/28/5 22/30/5
f 33/55/5 22/30/5 24/32/5
usemtl water.002
f 34/56/5 35/57/5 36/58/5
f 35/57/5 34/56/5 28/59/5
f 28/59/5 34/56/5 26/60/5
f 26/60/5 34/56/5 27/61/5
f 27/61/5 34/56/5 30/62/5
f 30/62/5 34/56/5 31/63/5
f 31/63/9 34/56/10 37/64/10
f 28/59/5 29/65/5 35/57/5
